<svg width="500" height="500" viewBox="0 0 500 500" fill="none" xmlns="http://www.w3.org/2000/svg">
<g clip-path="url(#clip0_2_10)">
<path d="M89.3388 264.284C57.8834 201.357 152.25 185.626 183.705 201.357C230.888 154.162 340.982 169.894 356.71 217.089C419.621 217.089 451.076 280.016 403.893 327.211C435.349 390.138 340.982 421.601 293.799 390.138C246.616 437.333 120.794 405.869 136.522 342.942C73.6111 342.942 57.8834 295.747 89.3388 264.284Z" fill="#E8D09E" stroke="#D8BE87" stroke-width="15" stroke-linejoin="round"/>
<path d="M167.779 295.917C89.1121 264.394 89.1121 154.064 183.512 169.826C199.245 59.4957 356.578 91.0185 356.578 185.587C450.977 185.587 435.244 295.917 356.578 311.678C293.645 343.201 214.978 327.44 167.779 295.917Z" fill="#FCF2D2" stroke="#DABF8A" stroke-width="15" stroke-linejoin="round"/>
<path opacity="0.9" d="M232.377 167.795C244.413 160.845 251.354 150.333 247.879 144.315C244.405 138.297 231.83 139.051 219.794 146.001C207.757 152.95 200.817 163.462 204.291 169.48C207.766 175.499 220.34 174.744 232.377 167.795Z" fill="white"/>
<path opacity="0.9" d="M263.926 136C268.345 136 271.926 132.642 271.926 128.5C271.926 124.358 268.345 121 263.926 121C259.508 121 255.926 124.358 255.926 128.5C255.926 132.642 259.508 136 263.926 136Z" fill="white"/>
<path d="M246.111 230.861C254.119 230.861 260.611 224.593 260.611 216.861C260.611 209.129 254.119 202.861 246.111 202.861C238.103 202.861 231.611 209.129 231.611 216.861C231.611 224.593 238.103 230.861 246.111 230.861Z" fill="#4A3121"/>
<path d="M324.611 240.861C332.343 240.861 338.611 234.593 338.611 226.861C338.611 219.129 332.343 212.861 324.611 212.861C316.879 212.861 310.611 219.129 310.611 226.861C310.611 234.593 316.879 240.861 324.611 240.861Z" fill="#4A3121"/>
<path d="M271.611 238.861C280.944 252.306 290.278 253.426 299.611 242.222" stroke="#4A3121" stroke-width="10" stroke-linecap="round"/>
</g>
<defs>
<clipPath id="clip0_2_10">
<rect width="500" height="500" fill="white"/>
</clipPath>
</defs>
</svg>
